<svg viewBox="0 0 60 61" xmlns="http://www.w3.org/2000/svg">
    <title>
        Orange
    </title>
    <g fill="none" fill-rule="evenodd">
        <path d="M52 29.113c0-12.15-9.85-22-22-22s-22 9.85-22 22 9.85 22 22 22 22-9.85 22-22zm-41.556 0c0-10.8 8.757-19.555 19.556-19.555 10.8 0 19.556 8.756 19.556 19.555 0 10.8-8.757 19.556-19.556 19.556-10.8 0-19.556-8.757-19.556-19.557zm21.284 0l6.47 6.47c.477.477.477 1.25 0 1.728-.478.478-1.25.478-1.73 0L30 30.843l-6.47 6.47c-.477.476-1.25.476-1.728 0-.477-.48-.477-1.252 0-1.73l6.47-6.47-6.47-6.468c-.477-.477-.477-1.25 0-1.728.478-.478 1.25-.478 1.73 0L30 27.386l6.47-6.47c.477-.478 1.25-.478 1.727 0 .478.477.478 1.25 0 1.728l-6.47 6.47z" stroke="#FF571F" stroke-width="2" fill="#FF571F"/>
    </g>
</svg>