<?xml version="1.0" encoding="UTF-8" standalone="no"?><!DOCTYPE svg PUBLIC "-//W3C//DTD SVG 1.1//EN" "http://www.w3.org/Graphics/SVG/1.1/DTD/svg11.dtd"><svg width="100%" height="100%" viewBox="0 0 32 32" version="1.1" xmlns="http://www.w3.org/2000/svg" xmlns:xlink="http://www.w3.org/1999/xlink" xml:space="preserve" xmlns:serif="http://www.serif.com/" style="fill-rule:evenodd;clip-rule:evenodd;stroke-linejoin:round;stroke-miterlimit:1.41421;"><path d="M4,9l24,0c1.104,0 2,0.104 2,-1c0,-1.104 -0.896,-1 -2,-1l-24,0c-1.104,0 -2,-0.104 -2,1c0,1.104 0.896,1 2,1Zm24,6l-24,0c-1.104,0 -2,-0.104 -2,1c0,1.104 0.896,1 2,1l24,0c1.104,0 2,0.104 2,-1c0,-1.104 -0.896,-1 -2,-1Zm0,8l-24,0c-1.104,0 -2,-0.104 -2,1c0,1.104 0.896,1 2,1l24,0c1.104,0 2,0.104 2,-1c0,-1.104 -0.896,-1 -2,-1Z" style="fill:#369;fill-rule:nonzero;stroke:#369;stroke-width:1px;"/></svg>