<svg viewBox="0 0 60 61" xmlns="http://www.w3.org/2000/svg">
    <title>
        Grey
    </title>
    <g fill="none" fill-rule="evenodd">
        <path d="M46.39 14.283c-4.217-4.22-9.938-6.59-15.902-6.59-5.965 0-11.683 2.37-15.9 6.59C10.37 18.5 8 24.225 8 30.193c0 5.967 2.37 11.69 6.587 15.91 4.218 4.218 9.937 6.59 15.9 6.59 5.966 0 11.686-2.372 15.902-6.59 4.23-4.214 6.61-9.94 6.61-15.91 0-5.973-2.38-11.7-6.61-15.91zM33.485 42.146h-6v-14.85h6v14.85zm-3-17.352c-1.33 0-2.53-.8-3.038-2.032-.51-1.23-.227-2.645.715-3.586.94-.94 2.356-1.22 3.584-.71 1.228.512 2.028 1.712 2.026 3.043 0 .87-.346 1.707-.963 2.324-.617.616-1.453.962-2.324.96z" fill="#A6A5A5"/>
    </g>
</svg>