<svg viewBox="0 0 60 60" xmlns="http://www.w3.org/2000/svg">
    <title>
        Blue
    </title>
    <g fill="none" fill-rule="evenodd">
        <path d="M46.39 13.436c-4.217-4.22-9.938-6.59-15.902-6.59-5.965 0-11.683 2.37-15.9 6.59C10.37 17.656 8 23.38 8 29.346c0 5.968 2.37 11.69 6.587 15.91 4.218 4.22 9.937 6.59 15.9 6.59 5.966 0 11.686-2.37 15.902-6.59 4.23-4.214 6.61-9.94 6.61-15.91 0-5.973-2.38-11.698-6.61-15.91zM33.485 41.3h-6V26.45h6V41.3zm-3-17.352c-1.33 0-2.53-.802-3.038-2.032-.51-1.23-.227-2.646.715-3.586.94-.94 2.356-1.22 3.584-.71 1.228.51 2.028 1.712 2.026 3.043 0 .872-.346 1.708-.963 2.325-.617.615-1.453.962-2.324.96z" fill="#369"/>
    </g>
</svg>