<svg viewBox="0 0 60 60" xmlns="http://www.w3.org/2000/svg">
    <title>
        White
    </title>
    <g fill="none" fill-rule="evenodd">
        <g fill="#FDFDFD">
            <path d="M44.616 43.986c0 .905-.725 1.63-1.63 1.63H16.113c-.905 0-1.63-.725-1.63-1.63V17.113c0-.905.725-1.63 1.63-1.63H26.7v-3.257H16.112c-2.714 0-4.887 2.172-4.887 4.887v26.873c0 2.715 2.172 4.887 4.887 4.887h26.873c2.715 0 4.887-2.172 4.887-4.887V33.4h-3.257v10.586z"/>
            <path d="M32.4 12.226v3.257h9.908L29.503 28.288l2.31 2.308L44.615 17.79v9.91h3.257V12.225"/>
        </g>
    </g>
</svg>