<svg viewBox="0 0 80 60" xmlns="http://www.w3.org/2000/svg">
    <title>
        Blue
    </title>
    <g fill="none" fill-rule="evenodd">
        <path d="M61.402 10.516h-43.56c-4.324 0-7.842 3.38-7.842 7.534v26.9c0 4.154 3.518 7.534 7.843 7.534h43.56c4.322 0 7.84-3.38 7.84-7.534v-26.9c0-4.154-3.518-7.534-7.84-7.534zm-43.56 3.11h43.56c.61 0 1.21.12 1.77.346l-20.137 18.27c-.91.824-2.12 1.278-3.413 1.278-1.293 0-2.505-.454-3.413-1.278l-20.137-18.27c.56-.227 1.16-.345 1.77-.345zM66.007 44.95c0 2.438-2.065 4.423-4.604 4.423h-43.56c-2.538 0-4.603-1.984-4.603-4.423v-26.9c0-.68.16-1.34.47-1.943l20.277 18.396c1.505 1.366 3.506 2.12 5.635 2.12 2.13 0 4.13-.753 5.637-2.12l20.276-18.396c.31.604.47 1.264.47 1.943v26.9z" fill-rule="nonzero" fill="#369"/>
    </g>
</svg>