<svg viewBox="0 0 60 60" xmlns="http://www.w3.org/2000/svg">
    <title>
        Blue
    </title>
    <g fill="none" fill-rule="evenodd">
        <g fill="#369">
            <path d="M52.643 50.355l-13.98-14.258c2.725-3.2 4.22-7.27 4.22-11.51C42.883 14.888 35.15 7 25.643 7 16.134 7 8.4 14.89 8.4 24.587c0 9.697 7.735 17.585 17.242 17.585 4.158 0 8.148-1.523 11.285-4.3l13.98 14.257c.23.237.54.368.867.368.33 0 .637-.13.87-.368.23-.237.36-.55.36-.887 0-.334-.13-.65-.36-.885zm-27-10.69c-8.152 0-14.784-6.765-14.784-15.08 0-8.314 6.63-15.078 14.782-15.078 8.15 0 14.782 6.764 14.782 15.08 0 8.313-6.63 15.077-14.782 15.077z" fill-rule="nonzero"/>
            <path d="M18.535 15.578c-3.09 3.144-4.61 7.546-4.136 11.967.056.51.476.892.976.888h.107c.26-.027.497-.156.66-.362.16-.206.238-.47.21-.732-.41-3.83.902-7.642 3.58-10.362.377-.393.37-1.024-.016-1.41-.386-.385-1.004-.38-1.382.012z"/>
        </g>
    </g>
</svg>