<svg viewBox="0 0 60 60" xmlns="http://www.w3.org/2000/svg">
    <title>
        Blue
    </title>
    <g fill="none" fill-rule="evenodd">
        <path d="M52 29c0-12.15-9.85-22-22-22S8 16.85 8 29s9.85 22 22 22 22-9.85 22-22zm-41.556 0C10.444 18.2 19.2 9.444 30 9.444 40.8 9.444 49.556 18.2 49.556 29c0 10.8-8.757 19.556-19.556 19.556-10.8 0-19.556-8.757-19.556-19.556zm21.284 0l6.47 6.47c.477.477.477 1.25 0 1.728-.478.477-1.25.477-1.73 0L30 30.728l-6.47 6.47c-.477.477-1.25.477-1.728 0-.477-.478-.477-1.25 0-1.73L28.272 29l-6.47-6.47c-.477-.477-.477-1.25 0-1.728.478-.477 1.25-.477 1.73 0L30 27.272l6.47-6.47c.477-.477 1.25-.477 1.727 0 .478.478.478 1.25 0 1.73L31.727 29z" stroke="#369" stroke-width="2" fill="#369"/>
    </g>
</svg>