<svg xmlns="http://www.w3.org/2000/svg" viewBox="0 0 547 243">
    <g fill="none" fill-rule="nonzero">
        <path fill="#A6A5A5" d="M315.55 65.17l20.53 20.89V62.84c0-22.542 19.58-19.767 19.58-19.767h128.771c22.933 0 19.457 19.565 19.457 19.565v116.696c0 22.856-19.462 20.065-19.462 20.065h-22.933v42.539h22.938c68.345 0 62.181-62.35 62.181-62.35V62.642c0-64.26-62.18-62.485-62.18-62.485H355.66c-63.496 0-61.422 62.485-61.422 62.485l-.026 23.392 21.334-20.87.005.006z"/>
        <path fill="#369" d="M294.176 94.066v84.835c0 34.905 28.039 63.207 62.608 63.207 34.58 0 62.61-28.302 62.61-63.207s-28.03-63.212-62.61-63.212c-5.013 0-10.146.541-14.824 1.666v47.64c3.765-4.22 9.212-6.809 15.268-6.809 11.348 0 20.53 9.27 20.53 20.72 0 11.451-9.182 20.715-20.53 20.715-11.332 0-21.406-9.424-21.406-20.875v-84.68l-20.22-20.72-21.426 20.72zM115.18 146.39c-19.302.36-30.897 4.56-31.3 28.276-.474 27.111 13.025 27.132 36.097 29.185l5.39.603c11.735.965 13.169.722 13.035 8.924-.14 7.943-3.993 8.68-15.733 8.47-12.235-.217-15.747-1.662-15.577-11.503H83.128c-.537 31.02 15.247 31.789 39.098 32.212 41.213.722 40.919-14.752 41.187-30.392.387-21.69-6.447-25.326-34.146-27.827l-10.332-.908c-6.602-.62-10.161-.898-10.038-8.46.104-5.302 1.197-8.113 14.685-7.87 9.986.175 13.948.721 13.783 10.434h23.96l.154-3.935c.443-26.1-17.125-26.709-37.603-27.07-3.058-.052-5.931-.206-8.686-.155l-.01.016zM0 241.66h24.862v-36.752l25.914 36.746h30.856l-35.643-47.939 32.796-46.124H48.832l-24.12 35.385.155-35.385H0v94.068zm174.343-94.063v94.062h49.585c19.766 0 30.407-3.074 30.407-26.161 0-11.797-2.383-20.297-16.176-21.174v-.908c12.297-2.012 14.675-9.852 14.675-21.767 0-20.581-10.987-24.052-29.505-24.052h-48.986zm24.872 20.565h20.968c6.963.258 7.789 2.373 7.789 8.02 0 7.532-2.084 9.079-10.78 9.079h-17.987v-17.104l.01.005zm223.773 31c-5.725 19.198-19.642 34.802-37.592 42.802l70.253-.155v-42.642h-32.66v-.005zm-223.773 3.482h19.323c8.077 0 10.935 1.134 10.935 8.923 0 7.655-3.301 9.527-11.39 9.527h-18.868v-18.45z"/>
    </g>
</svg>
