<svg viewBox="0 0 60 60" xmlns="http://www.w3.org/2000/svg">
    <title>
        White
    </title>
    <g fill="none" fill-rule="evenodd">
        <g fill-rule="nonzero" fill="#FDFDFD">
            <path d="M28.538 46.813h-14.58c-1.93 0-3.498-1.57-3.498-3.497v-28.36c0-1.927 1.57-3.496 3.497-3.496H37.59c1.928 0 3.496 1.568 3.496 3.497v13.4c0 .678.553 1.23 1.23 1.23.678 0 1.23-.552 1.23-1.23v-13.4c0-3.285-2.672-5.957-5.955-5.957H13.958C10.672 9 8 11.672 8 14.957v28.36c0 3.284 2.672 5.956 5.957 5.956h14.58c.68 0 1.232-.552 1.232-1.23-.002-.678-.553-1.23-1.232-1.23z"/>
            <path d="M41.135 30.27c-6.542 0-11.864 5.323-11.864 11.865S34.593 54 41.136 54 53 48.677 53 42.135 47.677 30.27 41.135 30.27zm0 21.27c-5.185 0-9.405-4.22-9.405-9.405 0-5.187 4.22-9.406 9.405-9.406 5.187 0 9.406 4.218 9.406 9.405 0 5.186-4.218 9.405-9.405 9.405zM34.448 18.904H17.1c-.678 0-1.23.552-1.23 1.23 0 .678.552 1.23 1.23 1.23h17.346c.678 0 1.23-.552 1.23-1.23 0-.678-.55-1.23-1.228-1.23zM35.677 27.955c0-.678-.552-1.23-1.23-1.23H17.1c-.678 0-1.23.552-1.23 1.23 0 .678.552 1.23 1.23 1.23h17.346c.68 0 1.23-.552 1.23-1.23zM17.1 34.547c-.678 0-1.23.552-1.23 1.23 0 .678.552 1.23 1.23 1.23h10.257c.678 0 1.23-.552 1.23-1.23 0-.678-.552-1.23-1.23-1.23H17.1z"/>
            <path d="M42.005 36.538l-.043-.038c-.043-.04-.09-.078-.144-.115-.03-.02-.06-.036-.106-.06-.038-.02-.077-.042-.108-.052-.035-.015-.07-.026-.133-.044l-.097-.028c-.157-.03-.31-.032-.486.002l-.115.032c-.035.01-.072.022-.096.032-.04.015-.08.035-.13.064-.033.017-.066.034-.1.057-.056.038-.11.083-.143.114l-4.764 4.76c-.233.233-.363.542-.363.87 0 .328.13.637.362.87.463.465 1.274.465 1.74 0l2.625-2.627v6.484c0 .68.553 1.232 1.23 1.232.68 0 1.23-.552 1.23-1.23v-6.485l2.628 2.628c.467.466 1.275.464 1.74 0 .232-.233.36-.542.36-.87 0-.33-.128-.638-.36-.87l-4.728-4.727z"/>
        </g>
    </g>
</svg>