<svg viewBox="0 0 60 60" xmlns="http://www.w3.org/2000/svg">
    <title>
        Blue
    </title>
    <g fill-rule="nonzero" fill="#369">
        <path d="M36.666 35.537c-1.587 0-2.656.723-3.52 1.307-.648.44-1.117.757-1.7.757-1.177 0-3.053-1.304-5.575-3.876-4.74-4.837-4.034-5.922-3.056-7.425.57-.877 1.28-1.968 1.28-3.59 0-1.25-1.154-3.717-3.018-5.53-1.758-1.71-3.722-3.292-6.168-3.292-1.88 0-3.69.915-5.536 2.798C7.842 18.252 7 20.33 7 22.54c0 5.407 5.85 13.3 11.323 18.882 5.474 5.584 13.212 11.55 18.512 11.55 2.165 0 4.204-.862 5.74-2.422 5.465-5.57 1.296-10.03-.486-11.936-1.78-1.9-4.2-3.077-5.425-3.077zm4.17 13.233c-1.07 1.088-2.492 1.687-4 1.687-3.747 0-10.333-4.256-16.777-10.844C13.62 33.036 9.463 26.333 9.462 22.54c0-1.54.587-2.99 1.65-4.08 1.36-1.384 2.6-2.06 3.794-2.06 1.657 0 3.175 1.343 4.467 2.6 1.546 1.503 2.252 3.355 2.253 3.71 0 .863-.383 1.45-.868 2.198-1.587 2.438-2.345 4.766 3.37 10.593 3.126 3.19 5.383 4.614 7.317 4.614 1.324 0 2.288-.652 3.065-1.178.73-.495 1.306-.886 2.153-.886.348.002 2.165.722 3.642 2.3 2.347 2.51 4.005 4.874.53 8.42zm5.824-36.253C43.172 8.96 38.512 7 33.538 7c-4.167 0-8.245 1.44-11.482 4.055-.257.208-.415.506-.446.84-.03.336.076.676.295.933.42.495 1.222.566 1.733.156 2.795-2.24 6.31-3.472 9.9-3.472 4.314 0 8.355 1.698 11.38 4.783 5.766 5.882 6.305 15.23 1.252 21.747-.422.544-.358 1.32.147 1.77.223.2.51.308.805.308.365 0 .705-.166.932-.456 5.884-7.524 5.284-18.334-1.394-25.147z"/>
        <path d="M40.203 31.55c.212.16.472.25.735.25.404 0 .772-.205.986-.55.99-1.6 1.514-3.455 1.514-5.364 0-.415-.025-.833-.074-1.243-.608-5.04-4.825-8.84-9.81-8.84-1.86 0-3.668.53-5.23 1.528-.277.178-.463.457-.523.786-.06.337.02.69.226.97.38.518 1.148.657 1.71.31 1.145-.704 2.466-1.077 3.82-1.077 3.74 0 6.907 2.85 7.363 6.63.036.31.055.624.055.936 0 1.39-.37 2.745-1.07 3.92-.354.59-.225 1.34.3 1.744z"/>
    </g>
</svg>