<svg viewBox="0 0 60 60" xmlns="http://www.w3.org/2000/svg">
    <title>
        White
    </title>
    <g fill="none" fill-rule="evenodd">
        <g stroke="#FDFDFD" fill="#FDFDFD">
            <path d="M34.122 8.67c.237 0 .376.03.436.052.023.058.054.19.054.416v5.178c0 .71.47 1.34 1.172 1.575 1.52.51 3.01 1.34 4.43 2.476.323.258.724.39 1.126.39.302 0 .606-.075.88-.226l4.435-2.453.038-.022c.188-.11.306-.147.362-.162.054.045.15.152.27.348 0 .005.005.012.007.016l3.734 6.17c.128.212.166.338.177.39-.036.044-.13.136-.344.266l-4.495 2.436c-.61.33-.955.978-.875 1.645.074.607.114 1.217.155 1.865v.432c0 .87-.074 1.697-.224 2.524-.124.688.213 1.376.846 1.726l4.564 2.53.056.03c.167.085.255.155.3.2-.01.047-.025.115-.06.208-.008.026-.017.05-.023.075-.01.02-.032.053-.068.115-.004.007-.008.013-.01.02l-3.72 6.146c-.135.21-.234.298-.28.332-.054-.01-.186-.044-.414-.17l-4.686-2.572c-.27-.15-.572-.222-.874-.222-.37 0-.743.113-1.053.334-.472.34-.944.676-1.416 1.013-.974.55-1.937.998-2.867 1.326-.687.243-1.143.868-1.143 1.565v5.22c0 .226-.03.358-.054.416-.06.02-.2.05-.436.05h-7.26c-.237 0-.376-.03-.436-.05-.022-.058-.054-.19-.054-.416v-5.14c0-.697-.454-1.322-1.14-1.565-1.637-.58-3.097-1.393-4.463-2.482-.322-.258-.722-.39-1.125-.39-.297 0-.597.072-.867.22l-4.44 2.41-.012.006c-.233.127-.37.16-.423.17-.044-.037-.138-.13-.25-.314l-3.66-6.048c-.047-.11-.105-.228-.184-.35-.033-.077-.047-.13-.053-.16.038-.042.136-.134.357-.258l4.517-2.49c.637-.35.977-1.045.847-1.736-.105-.56-.143-1.15-.183-1.775v-.425c0-.87.075-1.694.225-2.52.127-.692-.215-1.384-.854-1.734l-4.54-2.48c-.213-.12-.305-.21-.336-.245-.004-.015-.01-.027-.013-.042.012-.05.048-.17.168-.39l3.754-6.138c.007-.013.014-.023.023-.036.1-.176.185-.27.23-.308.056.01.18.043.39.158l4.686 2.572c.27.15.573.222.875.222.37 0 .74-.113 1.05-.333l.02-.016c.482-.343.936-.667 1.38-.95.926-.563 1.897-1.026 2.887-1.375.687-.244 1.143-.868 1.143-1.565V9.138c0-.226.03-.358.053-.416.06-.02.2-.05.436-.05h7.26-.002zm0-1.67h-7.26c-1.493 0-2.24.712-2.24 2.135v5.218c-1.118.396-2.198.912-3.236 1.543-.496.317-.997.673-1.493 1.027l-4.687-2.573c-.465-.257-.9-.385-1.297-.385-.698 0-1.284.396-1.734 1.176l-3.774 6.17c-.373.672-.496 1.226-.29 1.74.125.435.498.83 1.12 1.185l4.563 2.493c-.165.908-.25 1.818-.25 2.805v.475c.042.672.085 1.345.21 2.016l-4.523 2.498c-1.203.67-1.534 1.54-.953 2.688.04.038.082.12.124.238l3.732 6.168c.47.77 1.053 1.15 1.74 1.15.407 0 .852-.133 1.33-.398l4.438-2.412c1.534 1.225 3.193 2.135 4.978 2.768v5.14c0 1.422.747 2.136 2.24 2.136h7.26c1.494 0 2.24-.712 2.24-2.135v-5.22c1.12-.396 2.2-.91 3.236-1.504.497-.353.995-.71 1.494-1.067l4.687 2.572c.477.265.915.397 1.318.397.68 0 1.256-.38 1.753-1.15l3.733-6.167c.123-.198.207-.356.248-.516.166-.474.21-.908.083-1.264-.165-.435-.538-.83-1.16-1.147l-4.564-2.53c.165-.91.248-1.82.248-2.81v-.473c-.043-.673-.083-1.344-.166-2.018l4.52-2.452c1.287-.752 1.537-1.7.79-2.926l-3.73-6.167c-.473-.8-1.063-1.205-1.756-1.205-.405 0-.843.137-1.317.414l-4.438 2.453c-1.536-1.226-3.195-2.174-4.977-2.77V9.136c0-1.42-.75-2.135-2.243-2.135z"/>
            <path d="M30.09 39.423c-2.61 0-4.892-.908-6.785-2.696-1.86-1.76-2.805-3.915-2.805-6.41 0-2.522.944-4.692 2.805-6.453 1.864-1.762 4.147-2.653 6.785-2.653 2.64 0 4.92.892 6.783 2.654 1.893 1.788 2.85 3.958 2.85 6.454 0 2.466-.96 4.623-2.85 6.41-1.892 1.79-4.174 2.695-6.783 2.695zm0-16.38c-2.137 0-3.908.69-5.415 2.115-1.508 1.424-2.24 3.112-2.24 5.16 0 2.02.732 3.69 2.24 5.115 1.538 1.454 3.31 2.16 5.415 2.16 2.104 0 3.876-.706 5.414-2.16 1.536-1.45 2.284-3.124 2.284-5.115 0-1.992-.767-3.727-2.284-5.16-1.508-1.422-3.276-2.116-5.414-2.116z"/>
        </g>
    </g>
</svg>